<svg viewBox="0 0 83 24" fill="none" xmlns="http://www.w3.org/2000/svg">
    <g id="Layer 1">
        <g id="Group">
            <path id="Vector" d="M23.8153 0.296875H0.832031V23.2969H23.8153V0.296875Z" fill="#0A0A0A"/>
            <path id="Vector_2" d="M15.3674 13.2375C16.5883 12.5259 17.4071 11.2034 17.4071 9.68688V7.9475C17.4071 5.13719 15.1303 2.85156 12.3149 2.85156C9.49944 2.85156 7.22266 5.13 7.22266 7.9475V9.80906H10.3254V9.93125C9.95192 10.0247 9.59281 10.1684 9.26242 10.3625C8.04144 11.0741 7.22266 12.3966 7.22266 13.9131V15.6525C7.22266 18.4628 9.49944 20.7484 12.3149 20.7484C15.1303 20.7484 17.4071 18.47 17.4071 15.6525V13.7909H14.3044V13.6688C14.6779 13.5753 15.037 13.4316 15.3674 13.2375ZM13.3132 16.2706C13.3132 16.8169 12.8679 17.2625 12.3221 17.2625C11.7762 17.2625 11.3309 16.8169 11.3309 16.2706V7.32938C11.3309 6.78312 11.7762 6.3375 12.3221 6.3375C12.8679 6.3375 13.3132 6.78312 13.3132 7.32938V16.2706Z" fill="white"/>
            <path id="Vector_3" d="M31.5872 16.5181C30.8115 16.4606 30.4237 16.7697 30.4237 17.4525V17.51H31.5872V18.8684H30.4237V22.9869H29.0088V18.8684H28.2188V17.51H29.0088V17.4525C29.0088 16.6763 29.2243 16.0869 29.6552 15.6916C30.0861 15.2891 30.7254 15.1166 31.5801 15.1669V16.5253L31.5872 16.5181ZM36.6436 22.3041C36.0833 22.8575 35.3938 23.1378 34.5822 23.1378C33.7706 23.1378 33.0883 22.8575 32.5209 22.3041C31.9679 21.7434 31.6878 21.0534 31.6878 20.2412C31.6878 19.4291 31.9679 18.7462 32.5209 18.1928C33.074 17.6394 33.7706 17.3519 34.5822 17.3519C35.3938 17.3519 36.0762 17.6322 36.6436 18.1928C37.2038 18.7462 37.4839 19.4291 37.4839 20.2412C37.4839 21.0534 37.2038 21.7362 36.6436 22.3041ZM33.5193 21.3266C33.8066 21.6141 34.1585 21.7506 34.5822 21.7506C35.006 21.7506 35.3579 21.6069 35.6452 21.3266C35.9325 21.0462 36.069 20.6797 36.069 20.2412C36.069 19.8028 35.9253 19.4434 35.6452 19.1559C35.3579 18.8684 35.006 18.7319 34.5822 18.7319C34.1585 18.7319 33.8066 18.8756 33.5193 19.1559C33.2392 19.4434 33.1027 19.8028 33.1027 20.2412C33.1027 20.6797 33.2392 21.0391 33.5193 21.3266ZM42.0374 17.5028H43.4523V22.9797H42.0374V22.3687C41.6927 22.8791 41.154 23.1378 40.4071 23.1378C39.8109 23.1378 39.3154 22.9366 38.9203 22.5341C38.5325 22.1316 38.3386 21.5781 38.3386 20.8666V17.5028H39.7535V20.6941C39.7535 21.0606 39.854 21.3409 40.0479 21.535C40.2419 21.7219 40.5076 21.8225 40.838 21.8225C41.2043 21.8225 41.4916 21.7075 41.7142 21.4847C41.9297 21.2547 42.0446 20.9169 42.0446 20.4641V17.5028H42.0374ZM47.733 17.3519C48.3291 17.3519 48.8247 17.5531 49.2125 17.9556C49.6076 18.3581 49.8015 18.9116 49.8015 19.6231V22.9869H48.3866V19.7956C48.3866 19.4291 48.286 19.1559 48.0921 18.9619C47.8982 18.7678 47.6324 18.6672 47.302 18.6672C46.9357 18.6672 46.6485 18.7822 46.4258 19.005C46.2103 19.235 46.0954 19.5728 46.0954 20.0256V22.9869H44.6805V17.51H46.0954V18.1209C46.4402 17.6106 46.9788 17.3519 47.7258 17.3519H47.733ZM55.102 15.3106H56.5169V22.9797H55.102V22.3328C54.6854 22.8647 54.0965 23.1306 53.328 23.1306C52.5595 23.1306 51.9562 22.8503 51.4319 22.2969C50.9147 21.7362 50.6562 21.0462 50.6562 20.2341C50.6562 19.4219 50.9147 18.7391 51.4319 18.1856C51.9562 17.625 52.5882 17.3447 53.328 17.3447C54.0677 17.3447 54.6854 17.6106 55.102 18.1425V15.3034V15.3106ZM52.4948 21.3625C52.7893 21.65 53.1484 21.7866 53.5865 21.7866C54.0247 21.7866 54.3838 21.6428 54.6711 21.3625C54.9583 21.0678 55.0948 20.7012 55.0948 20.2484C55.0948 19.7956 54.9512 19.4291 54.6711 19.1416C54.3838 18.8469 54.0247 18.7031 53.5865 18.7031C53.1484 18.7031 52.7821 18.8469 52.4948 19.1416C52.2075 19.4291 52.0711 19.7956 52.0711 20.2484C52.0711 20.7012 52.2147 21.075 52.4948 21.3625ZM61.9108 17.5028H63.3257V22.9797H61.9108V22.3328C61.487 22.8647 60.8909 23.1306 60.1296 23.1306C59.3683 23.1306 58.7721 22.8503 58.2478 22.2969C57.7307 21.7362 57.4721 21.0462 57.4721 20.2341C57.4721 19.4219 57.7307 18.7391 58.2478 18.1856C58.7721 17.625 59.4042 17.3447 60.1296 17.3447C60.8981 17.3447 61.4942 17.6106 61.9108 18.1425V17.4956V17.5028ZM59.3036 21.3625C59.5909 21.65 59.95 21.7866 60.3881 21.7866C60.8263 21.7866 61.1854 21.6428 61.4727 21.3625C61.7671 21.0678 61.9108 20.7012 61.9108 20.2484C61.9108 19.7956 61.7671 19.4291 61.4727 19.1416C61.1854 18.8469 60.8263 18.7031 60.3881 18.7031C59.95 18.7031 59.5909 18.8469 59.3036 19.1416C59.0163 19.4291 58.8799 19.7956 58.8799 20.2484C58.8799 20.7012 59.0235 21.075 59.3036 21.3625ZM67.6853 18.8612H66.45V21.1397C66.45 21.3266 66.5003 21.4703 66.5936 21.5566C66.687 21.6428 66.8306 21.6931 67.0102 21.7075C67.1898 21.7147 67.4196 21.7075 67.6925 21.6931V22.9725C66.7229 23.0803 66.0334 22.9941 65.6312 22.6994C65.2362 22.4047 65.0423 21.8872 65.0423 21.1325V18.8541H64.087V17.4956H65.0423V16.3887L66.4572 15.9647V17.4956H67.6925V18.8541L67.6853 18.8612ZM69.3229 16.8488C69.0859 16.8488 68.8848 16.7625 68.7124 16.5972C68.5472 16.4247 68.461 16.2162 68.461 15.9862C68.461 15.7562 68.5472 15.5478 68.7124 15.3753C68.8848 15.2028 69.0931 15.1094 69.3229 15.1094C69.5527 15.1094 69.7682 15.1956 69.9334 15.3753C70.1058 15.5478 70.1991 15.7562 70.1991 15.9862C70.1991 16.2162 70.1129 16.4247 69.9334 16.5972C69.7682 16.7625 69.5599 16.8488 69.3229 16.8488ZM68.6262 22.9797V17.5028H70.0411V22.9797H68.6262ZM75.9378 22.3041C75.3776 22.8575 74.688 23.1378 73.8764 23.1378C73.0649 23.1378 72.3825 22.8575 71.8151 22.3041C71.2621 21.7434 70.982 21.0534 70.982 20.2412C70.982 19.4291 71.2621 18.7462 71.8151 18.1928C72.3754 17.6322 73.0649 17.3519 73.8764 17.3519C74.688 17.3519 75.3704 17.6322 75.9378 18.1928C76.498 18.7462 76.7781 19.4291 76.7781 20.2412C76.7781 21.0534 76.498 21.7362 75.9378 22.3041ZM72.8207 21.3266C73.108 21.6141 73.4599 21.7506 73.8836 21.7506C74.3074 21.7506 74.6593 21.6069 74.9466 21.3266C75.2339 21.0462 75.3704 20.6797 75.3704 20.2412C75.3704 19.8028 75.2267 19.4434 74.9466 19.1559C74.6593 18.8684 74.3074 18.7319 73.8836 18.7319C73.4599 18.7319 73.108 18.8756 72.8207 19.1559C72.5406 19.4434 72.4041 19.8028 72.4041 20.2412C72.4041 20.6797 72.5406 21.0391 72.8207 21.3266ZM80.7643 17.3519C81.3604 17.3519 81.856 17.5531 82.2438 17.9556C82.6388 18.3581 82.8327 18.9116 82.8327 19.6231V22.9869H81.4178V19.7956C81.4178 19.4291 81.3173 19.1559 81.1234 18.9619C80.9294 18.7678 80.6637 18.6672 80.3333 18.6672C79.967 18.6672 79.6725 18.7822 79.4571 19.005C79.2344 19.235 79.1267 19.5728 79.1267 20.0256V22.9869H77.7118V17.51H79.1267V18.1209C79.4714 17.6106 80.0101 17.3519 80.7571 17.3519H80.7643Z" fill="#757575"/>
            <g id="Group_2">
                <path id="Vector_4" d="M29.7238 5.40625H28.2227V13.0753H32.6326V11.6306H29.7309V5.40625H29.7238Z" fill="#0A0A0A"/>
                <path id="Vector_5" d="M37.4451 8.24527C37.2368 7.98652 36.9567 7.77089 36.655 7.63433C36.3462 7.49058 36.0086 7.43308 35.671 7.44745C35.3191 7.44745 34.9672 7.51933 34.6512 7.66308C34.3351 7.80683 34.0479 8.02245 33.8108 8.28839C33.3081 8.84902 33.0352 9.58214 33.0352 10.344C33.0352 11.1059 33.3081 11.8318 33.8108 12.3996C34.0479 12.6656 34.3351 12.8812 34.6512 13.0178C34.9672 13.1615 35.3191 13.2334 35.671 13.2334C36.4324 13.2334 37.0213 12.9675 37.4451 12.4356V13.0825H38.8528V7.5912H37.4451V8.23808V8.24527ZM37.0141 11.4509C36.8705 11.5946 36.6981 11.7096 36.5186 11.7743C36.3318 11.8534 36.1379 11.8821 35.9296 11.875C35.7285 11.875 35.5346 11.8462 35.3478 11.7743C35.1611 11.6953 34.9959 11.5875 34.8595 11.4437C34.5865 11.1346 34.4285 10.7393 34.4285 10.3296C34.4285 9.91996 34.5793 9.52464 34.8595 9.21558C35.0031 9.07183 35.1683 8.95683 35.3478 8.88495C35.5346 8.80589 35.7285 8.77714 35.9296 8.78433C36.1307 8.78433 36.3318 8.81308 36.5186 8.88495C36.7053 8.96402 36.8777 9.07183 37.0141 9.20839C37.2871 9.51745 37.4451 9.91277 37.4451 10.3225C37.4451 10.7321 37.2942 11.1346 37.0141 11.4365V11.4509Z" fill="#0A0A0A"/>
                <path id="Vector_6" d="M42.4643 11.2816L41.0494 7.60156H39.5195L41.7532 12.9059C41.6598 13.2222 41.4803 13.5097 41.2217 13.7181C40.9632 13.8978 40.64 13.9769 40.3239 13.9625V15.2778C40.9416 15.3353 41.5593 15.17 42.0692 14.7963C42.5361 14.4369 42.9096 13.8762 43.1897 13.0928L45.172 7.60156H43.6709L42.4714 11.2816H42.4643Z" fill="#0A0A0A"/>
                <path id="Vector_7" d="M48.209 7.44727C47.8283 7.43289 47.4405 7.49758 47.0885 7.64852C46.7294 7.79227 46.4134 8.00789 46.1405 8.28102C45.6234 8.84164 45.3289 9.58196 45.3361 10.351C45.3361 11.1201 45.6305 11.8604 46.1548 12.4138C46.7007 12.9601 47.4189 13.2404 48.3167 13.2404C49.3653 13.2404 50.1554 12.8523 50.694 12.0688L49.5664 11.4076C49.4228 11.5945 49.236 11.7382 49.0206 11.8388C48.8123 11.9323 48.5753 11.9826 48.3454 11.961C47.5123 11.961 46.9952 11.616 46.8156 10.9332H50.9239C50.9526 10.7391 50.9742 10.5523 50.9813 10.351C51.0029 9.58914 50.7228 8.84883 50.2056 8.29539C49.9543 8.02227 49.6526 7.80664 49.3079 7.66289C48.9703 7.51914 48.5968 7.45446 48.2305 7.46164L48.209 7.44727ZM46.7869 9.81914C46.8515 9.50289 47.0239 9.20821 47.2753 8.99977C47.541 8.79852 47.8786 8.69789 48.2162 8.71227C48.525 8.71227 48.8195 8.79852 49.0708 8.98539C49.3294 9.18664 49.509 9.48852 49.5664 9.81914H46.7797H46.7869Z" fill="#0A0A0A"/>
                <path id="Vector_8" d="M53.353 8.54875V7.6H51.9453V13.0769H53.353V10.4606C53.353 9.93594 53.5182 9.56219 53.8558 9.33219C54.1934 9.10937 54.6028 9.01594 55.005 9.07344V7.49219C54.653 7.49219 54.3011 7.57844 53.9994 7.75094C53.6978 7.93062 53.468 8.20375 53.353 8.53437V8.54875Z" fill="#0A0A0A"/>
                <path id="Vector_9" d="M61.8936 6.59219V5.40625H56.8948V6.85094H59.9832L56.8086 11.8678V13.0753H61.9511V11.6306H58.7119L61.8865 6.59938L61.8936 6.59219Z" fill="#0A0A0A"/>
                <path id="Vector_10" d="M65.2676 7.44727C64.8869 7.43289 64.4991 7.49758 64.1471 7.64852C63.788 7.79227 63.472 8.00789 63.1991 8.28102C62.6819 8.84164 62.3875 9.58196 62.3947 10.351C62.3947 11.1201 62.6891 11.8604 63.2134 12.4138C63.7593 12.9601 64.4775 13.2404 65.3753 13.2404C66.4239 13.2404 67.214 12.8523 67.7526 12.0688L66.625 11.4076C66.4814 11.5945 66.2946 11.7382 66.0792 11.8388C65.8709 11.9323 65.6339 11.9826 65.404 11.961C64.5709 11.961 64.0538 11.616 63.867 10.9332H67.9753C68.004 10.7391 68.0256 10.5523 68.0327 10.351C68.0543 9.58914 67.7742 8.84883 67.2571 8.29539C67.0057 8.02227 66.704 7.80664 66.3593 7.66289C66.0217 7.51914 65.6482 7.45446 65.2819 7.46164L65.2676 7.44727ZM63.8455 9.81914C63.9101 9.50289 64.0825 9.20821 64.3339 8.99977C64.5996 8.79852 64.9372 8.69789 65.2748 8.71227C65.5836 8.71227 65.8781 8.79852 66.1294 8.98539C66.388 9.18664 66.5676 9.48852 66.625 9.81914H63.8383H63.8455Z" fill="#0A0A0A"/>
                <path id="Vector_11" d="M70.4116 8.54875V7.6H69.0039V13.0769H70.4116V10.4606C70.4116 9.93594 70.5768 9.56219 70.9144 9.33219C71.252 9.10937 71.6613 9.01594 72.0636 9.07344V7.49219C71.7116 7.49219 71.3597 7.57844 71.058 7.75094C70.7564 7.93062 70.5265 8.20375 70.4116 8.53437V8.54875Z" fill="#0A0A0A"/>
                <path id="Vector_12" d="M75.2759 7.44531C74.6151 7.44531 73.9759 7.68969 73.4731 8.11375C72.9703 8.545 72.6256 9.12719 72.5035 9.78125C72.3814 10.4353 72.4819 11.1109 72.798 11.6931C73.114 12.2753 73.6239 12.7281 74.2272 12.9797C74.8377 13.2313 75.5129 13.26 76.1449 13.0659C76.7769 12.8647 77.3156 12.4622 77.6819 11.9088C78.0482 11.3553 78.2062 10.6941 78.1416 10.04C78.0769 9.37875 77.7825 8.76063 77.3156 8.29344C77.0499 8.02031 76.7267 7.80469 76.3747 7.66094C76.0228 7.51719 75.6493 7.44531 75.2615 7.45969L75.2759 7.44531ZM76.3245 11.42C76.188 11.5638 76.0228 11.6716 75.8361 11.7434C75.6565 11.8153 75.4626 11.8513 75.2615 11.8441C75.0604 11.8441 74.8736 11.8153 74.6941 11.7434C74.5145 11.6716 74.3493 11.5566 74.2129 11.42C73.9471 11.1253 73.7891 10.7372 73.7891 10.3347C73.7891 9.93219 73.9328 9.55125 74.2129 9.24938C74.3493 9.10563 74.5145 8.99781 74.6941 8.92594C74.8736 8.85406 75.0676 8.81813 75.2615 8.82531C75.4626 8.82531 75.6493 8.85406 75.8361 8.92594C76.0156 8.99781 76.1808 9.11281 76.3245 9.24938C76.5974 9.54406 76.7482 9.93219 76.7482 10.3347C76.7482 10.7372 76.5974 11.1253 76.3245 11.42Z" fill="#0A0A0A"/>
                <path id="Vector_13" d="M81.0531 11.3906H79.3438V13.0797H81.0531V11.3906Z" fill="#0A0A0A"/>
            </g>
        </g>
    </g>
</svg>
